# xmcd
#
# Track frame offsets:
#  150
#  13726
#  29020
#  44981
#  59090
#  71387
#  84909
#  100959
#  117509
#  128147
#  141890
#  154601
#  166611
#  180825
#  195314
#  208886
#
# Disc length: 3007 seconds
#
# Revision: 0
# Processed by: cddbd v1.5.2PL0 Copyright (c) Steve Scherf et al.
# Submitted via: AltoMP3_Maker 3.0
#
DISCID=df0bbd10
DTITLE=David Allan Coe - The Complete Hits, disc 2
DYEAR=2017
DGENRE=Country
TTITLE0=Tennessee Whiskey
TTITLE1=Now I Lay Me Down to Cheat
TTITLE2=Take Time to Know Her
TTITLE3=The Ride
TTITLE4=Cheap Thrills
TTITLE5=Crazy Old Soldier
TTITLE6=Ride 'Em Cowboy
TTITLE7=Mona Lisa Lost Her Smile
TTITLE8=It's Great to Be Single Again
TTITLE9=She Used to Love Me a Lot
TTITLE10=Don't Cry Darlin'
TTITLE11=I'm Gonna Hurt Her on the Radio
TTITLE12=A Country Boy (Who Rolled the Rock Away)
TTITLE13=I've Already Cheated on You
TTITLE14=Need a Little Time off for Bad Behavior
TTITLE15=Tanya Montana
EXTD=
EXTT0=
EXTT1=
EXTT2=
EXTT3=
EXTT4=
EXTT5=
EXTT6=
EXTT7=
EXTT8=
EXTT9=
EXTT10=
EXTT11=
EXTT12=
EXTT13=
EXTT14=
EXTT15=
PLAYORDER=
